<svg width="144" height="30" fill="none" xmlns="http://www.w3.org/2000/svg"><path fill-rule="evenodd" clip-rule="evenodd" d="M18.447.068L1.808 1.294C.468 1.41 0 2.285 0 3.334v18.198c0 .817.291 1.516.992 2.45l3.911 5.074c.643.817 1.226.992 2.453.934l19.321-1.167c1.634-.116 2.102-.875 2.102-2.158V6.192c0-.663-.263-.854-1.037-1.42l-.132-.096L22.3.943c-1.285-.932-1.81-1.05-3.854-.875zM7.795 5.857c-1.578.106-1.936.13-2.832-.597L2.685 3.452c-.232-.234-.116-.526.468-.584l15.995-1.166c1.342-.117 2.042.35 2.568.758l2.743 1.984c.117.058.408.407.058.407l-16.519.992-.203.014zM5.954 26.49V9.11c0-.759.233-1.109.933-1.168l18.971-1.108c.644-.058.935.35.935 1.108v17.264c0 .759-.117 1.401-1.168 1.459l-18.154 1.05c-1.05.058-1.517-.291-1.517-1.225zm17.922-16.448c.117.525 0 1.05-.526 1.11l-.875.173v12.832c-.76.408-1.46.641-2.043.641-.934 0-1.168-.292-1.868-1.166l-5.722-8.982v8.69l1.81.409s0 1.05-1.46 1.05l-4.027.233c-.117-.234 0-.817.409-.933l1.05-.291v-11.49L9.165 12.2c-.117-.525.175-1.283.993-1.341l4.32-.292 5.954 9.1v-8.05l-1.518-.174c-.117-.643.35-1.109.933-1.167l4.03-.234z" fill="#000"/><path d="M42.145 22H45.2c.554 0 1.071-.066 1.552-.2.487-.132.93-.323 1.329-.572.354-.227.675-.5.962-.822a5.01 5.01 0 00.748-1.07c.21-.404.37-.85.481-1.337a6.778 6.778 0 00.174-1.56v-.947c0-.57-.06-1.107-.182-1.61a5.983 5.983 0 00-.515-1.386 4.741 4.741 0 00-.805-1.096 4.265 4.265 0 00-1.088-.814 5.14 5.14 0 00-1.253-.49 5.713 5.713 0 00-1.47-.182h-2.988V22zm2.018-10.459h.97c.322.005.62.044.897.116a2.8 2.8 0 01.747.29c.305.172.568.396.789.673.221.271.398.576.531.913.105.277.186.579.24.905.056.326.084.672.084 1.038v.963c0 .37-.028.719-.083 1.045a4.803 4.803 0 01-.24.905c-.123.327-.28.617-.474.872-.188.249-.404.456-.647.622-.238.16-.507.285-.806.374a3.56 3.56 0 01-.97.124h-1.038v-8.84zM56.688 22.166c.875 0 1.62-.172 2.233-.515.62-.343 1.08-.73 1.378-1.162l-1.062-1.029a2.767 2.767 0 01-1.054.822 3.372 3.372 0 01-1.378.282c-.36 0-.692-.06-.996-.183a2.338 2.338 0 01-.78-.514 2.423 2.423 0 01-.524-.714 3.558 3.558 0 01-.282-.988v-.041h6.226v-.855c0-.642-.086-1.234-.258-1.777a3.951 3.951 0 00-.763-1.403 3.46 3.46 0 00-1.254-.904c-.498-.222-1.07-.333-1.718-.333a4.114 4.114 0 00-2.988 1.262c-.388.404-.692.891-.913 1.461-.222.57-.332 1.207-.332 1.91v.34c0 .614.105 1.187.315 1.718.216.526.52.982.913 1.37.393.392.864.7 1.411.921a4.876 4.876 0 001.826.332zm-.24-7.703c.332 0 .622.058.871.174.255.11.465.26.631.448.172.194.305.421.399.681.094.255.14.512.14.772v.133h-4.224c.06-.343.155-.65.282-.921a2.54 2.54 0 01.473-.698c.188-.188.401-.332.64-.431.243-.106.506-.158.788-.158zM65.645 22h1.752l3.519-8.981h-2.059l-2.2 6.516-.132.597-.133-.597-2.224-6.516h-2.06L65.646 22zM77.108 22.166c.875 0 1.62-.172 2.233-.515.62-.343 1.08-.73 1.378-1.162l-1.062-1.029a2.767 2.767 0 01-1.054.822 3.372 3.372 0 01-1.378.282c-.36 0-.692-.06-.996-.183a2.338 2.338 0 01-.78-.514 2.424 2.424 0 01-.524-.714 3.555 3.555 0 01-.282-.988v-.041h6.226v-.855c0-.642-.086-1.234-.258-1.777a3.953 3.953 0 00-.763-1.403 3.461 3.461 0 00-1.254-.904c-.498-.222-1.07-.333-1.718-.333a4.115 4.115 0 00-2.988 1.262c-.388.404-.692.891-.913 1.461-.222.57-.332 1.207-.332 1.91v.34c0 .614.105 1.187.315 1.718.216.526.52.982.913 1.37.393.392.863.7 1.411.921a4.876 4.876 0 001.826.332zm-.24-7.703c.332 0 .622.058.871.174.255.11.465.26.631.448.172.194.304.421.399.681.094.255.14.512.14.772v.133h-4.224c.06-.343.154-.65.282-.921a2.54 2.54 0 01.473-.698c.188-.188.401-.332.64-.431.243-.106.505-.158.788-.158zM83.508 9.25v1.652h2.84v9.454h-2.84V22h7.562v-1.644h-2.722V9.25h-4.84zM92.971 17.426v.175c0 .658.094 1.264.282 1.818a4.22 4.22 0 00.822 1.444c.354.41.791.73 1.312.963.52.232 1.11.348 1.768.348.653 0 1.237-.116 1.751-.348.52-.233.958-.554 1.312-.963.354-.41.625-.891.813-1.444a5.62 5.62 0 00.282-1.818v-.175c0-.653-.094-1.256-.282-1.81a4.28 4.28 0 00-.813-1.452c-.36-.41-.8-.73-1.32-.963-.515-.232-1.101-.349-1.76-.349-.658 0-1.245.117-1.76.35a3.725 3.725 0 00-1.303.962c-.36.41-.633.894-.822 1.453a5.59 5.59 0 00-.282 1.81zm1.984.175v-.175c0-.393.042-.769.125-1.129.088-.36.224-.675.406-.946a2.03 2.03 0 01.673-.647c.276-.16.603-.241.98-.241.381 0 .708.08.979.24.276.161.506.377.689.648.171.271.301.587.39.946.088.36.133.736.133 1.13v.174c0 .404-.045.785-.133 1.145-.083.36-.213.675-.39.946a2.003 2.003 0 01-.681.648c-.277.155-.6.232-.971.232-.382 0-.711-.077-.988-.232a2.004 2.004 0 01-.68-.648 2.933 2.933 0 01-.407-.946 5.083 5.083 0 01-.125-1.145zM103.563 25.453h1.984v-4.267a3.109 3.109 0 00.722.59c.227.127.473.224.739.29.271.067.567.1.888.1.564 0 1.065-.116 1.502-.349a3.215 3.215 0 001.104-.962c.299-.404.523-.886.673-1.445a6.75 6.75 0 00.232-1.81v-.174c0-.675-.077-1.292-.232-1.85a4.441 4.441 0 00-.673-1.453 3.07 3.07 0 00-1.112-.938c-.437-.222-.943-.333-1.519-.333-.293 0-.57.034-.83.1-.26.061-.498.15-.714.266a2.65 2.65 0 00-.465.315 3.082 3.082 0 00-.398.407l-.075-.921h-1.826v12.434zm5.86-8.027v.175c0 .398-.038.777-.116 1.137-.077.354-.202.67-.373.946a1.905 1.905 0 01-.648.647c-.26.155-.575.233-.946.233-.227 0-.435-.025-.623-.075a2.207 2.207 0 01-.506-.216 1.834 1.834 0 01-.382-.332 1.986 1.986 0 01-.282-.423v-3.993c.088-.166.191-.315.307-.448.122-.133.263-.243.423-.332.139-.083.296-.146.473-.19.178-.045.368-.067.573-.067.371 0 .689.077.955.232.265.155.484.365.656.631.166.266.287.578.365.938.083.354.124.733.124 1.137zM117.948 22.166c.875 0 1.619-.172 2.233-.515.62-.343 1.079-.73 1.378-1.162l-1.062-1.029a2.773 2.773 0 01-1.055.822 3.37 3.37 0 01-1.378.282c-.359 0-.691-.06-.996-.183a2.34 2.34 0 01-.78-.514 2.425 2.425 0 01-.523-.714 3.572 3.572 0 01-.282-.988v-.041h6.225v-.855a5.85 5.85 0 00-.257-1.777 3.952 3.952 0 00-.763-1.403 3.467 3.467 0 00-1.254-.904c-.498-.222-1.071-.333-1.718-.333a4.118 4.118 0 00-2.988 1.262c-.388.404-.692.891-.914 1.461-.221.57-.332 1.207-.332 1.91v.34c0 .614.106 1.187.316 1.718.216.526.52.982.913 1.37.393.392.863.7 1.411.921a4.873 4.873 0 001.826.332zm-.24-7.703c.332 0 .622.058.871.174.255.11.465.26.631.448.172.194.304.421.398.681.094.255.142.512.142.772v.133h-4.226c.061-.343.155-.65.283-.921.127-.272.285-.504.473-.698.188-.188.401-.332.639-.431.243-.106.506-.158.789-.158zM130.175 12.852c-.619 0-1.187.144-1.701.432a4.112 4.112 0 00-1.312 1.187l-.008-.207-.083-1.245h-1.86V22h1.984v-5.545c.105-.265.236-.5.39-.705.155-.205.344-.374.565-.507.205-.138.44-.24.705-.307.266-.066.565-.1.897-.1.293 0 .587.017.88.05.299.033.6.083.905.15l.282-1.96a3.93 3.93 0 00-.714-.157 6.354 6.354 0 00-.93-.067zM140.045 19.568a.812.812 0 01-.1.398 1.021 1.021 0 01-.282.324 1.76 1.76 0 01-.622.29 3.324 3.324 0 01-.897.109c-.255 0-.506-.025-.755-.075a2.082 2.082 0 01-.664-.266 1.555 1.555 0 01-.498-.456 1.403 1.403 0 01-.216-.706h-1.926c0 .37.089.736.266 1.096.177.36.437.678.78.954.337.283.755.51 1.253.681.504.171 1.079.257 1.727.257a5.89 5.89 0 001.585-.199 4.047 4.047 0 001.229-.556c.337-.238.597-.523.78-.855.188-.332.282-.697.282-1.096 0-.41-.088-.763-.265-1.062a2.494 2.494 0 00-.747-.78 4.72 4.72 0 00-1.163-.532 12.173 12.173 0 00-1.502-.365 7.276 7.276 0 01-.979-.224 2.337 2.337 0 01-.598-.274.824.824 0 01-.324-.324.967.967 0 01-.091-.423c0-.15.036-.29.108-.424a.99.99 0 01.324-.356c.143-.111.326-.197.547-.258.227-.066.49-.1.789-.1.326 0 .611.045.855.133.243.084.443.197.598.34.132.123.232.26.298.416.072.15.108.307.108.473h1.984c0-.404-.088-.78-.265-1.129a2.686 2.686 0 00-.756-.905 3.758 3.758 0 00-1.212-.597 5.361 5.361 0 00-1.61-.225c-.559 0-1.068.072-1.527.216-.454.144-.842.34-1.163.59-.326.249-.578.54-.755.871a2.206 2.206 0 00-.257 1.038c0 .382.086.716.257 1.004.172.288.41.537.714.747.31.222.678.41 1.104.565.432.155.908.285 1.428.39.415.077.761.16 1.037.249.277.088.501.183.673.282.16.11.274.227.34.349a.8.8 0 01.108.415z" fill="#000"/></svg>